<svg width="72" height="72" viewBox="0 0 72 72" fill="none" xmlns="http://www.w3.org/2000/svg">
<path d="M14.9996 59.2508C6.72904 59.2508 0 52.5208 0 44.2478C0 35.9786 6.72918 29.2494 14.9996 29.2494C23.2712 29.2494 30.0004 35.9786 30.0004 44.2478C30.0004 52.5208 23.2712 59.2508 14.9996 59.2508ZM14.9996 32.2498C8.38366 32.2498 3.00029 37.6332 3.00029 44.2479C3.00029 50.8661 8.38366 56.2496 14.9996 56.2496C21.6167 56.2496 27 50.8663 27 44.2479C27 37.6331 21.6167 32.2498 14.9996 32.2498Z" fill="black"/>
<path d="M57.0015 59.2508C48.7288 59.2508 41.9985 52.5208 41.9985 44.2478C41.9985 35.9786 48.7287 29.2494 57.0015 29.2494C65.2721 29.2494 72.0001 35.9786 72.0001 44.2478C72.0001 52.5208 65.272 59.2508 57.0015 59.2508ZM57.0015 32.2498C50.3833 32.2498 45 37.6332 45 44.2479C45 50.8661 50.3833 56.2496 57.0015 56.2496C63.6153 56.2496 68.9988 50.8663 68.9988 44.2479C68.9986 37.6331 63.6153 32.2498 57.0015 32.2498Z" fill="black"/>
<path d="M25.5003 29.2494C24.6719 29.2494 23.9995 28.5782 23.9995 27.7498V21.749C23.9995 20.9206 24.6719 20.2494 25.5003 20.2494C26.3287 20.2494 26.9999 20.9206 26.9999 21.749V27.7498C26.9999 28.5782 26.3287 29.2494 25.5003 29.2494Z" fill="#EBB314"/>
<path d="M58.3989 43.7118L48.832 18.8356C48.5354 18.0632 47.6674 17.6765 46.894 17.9742C46.1205 18.2719 45.7338 19.1399 46.0326 19.9133L47.4125 23.4993L25.3168 26.2613C25.3036 26.2624 25.2915 26.2645 25.2784 26.2668C25.2597 26.27 25.241 26.2734 25.2224 26.2766C25.1939 26.2821 25.1642 26.2876 25.1356 26.2953C25.1169 26.2997 25.0972 26.3063 25.0785 26.3118C25.0587 26.3172 25.039 26.3216 25.0192 26.3282C25.0115 26.3305 25.0039 26.3348 24.9961 26.3369C24.9763 26.3447 24.9577 26.3523 24.939 26.36C24.9126 26.3698 24.8863 26.3808 24.861 26.3929C24.8423 26.4016 24.8236 26.4116 24.806 26.4214C24.7818 26.4335 24.7576 26.4456 24.7346 26.4598C24.7138 26.4719 24.6939 26.4851 24.6741 26.4982C24.6565 26.5103 24.6378 26.5224 24.6191 26.5345C24.6169 26.5368 24.6136 26.5389 24.6104 26.5411C24.5906 26.5564 24.572 26.573 24.5522 26.5884C24.5368 26.6005 24.5214 26.6126 24.5072 26.6258C24.5028 26.629 24.4985 26.6324 24.494 26.6367C24.4764 26.6521 24.4599 26.6697 24.4435 26.6872C24.4303 26.6993 24.417 26.7125 24.404 26.7256C24.3985 26.7311 24.393 26.7366 24.3875 26.7432C24.3754 26.7564 24.3656 26.7706 24.3535 26.7838C24.3502 26.7882 24.3469 26.7916 24.3436 26.7959C24.3327 26.8092 24.3217 26.8224 24.3107 26.8355C24.3052 26.8432 24.2986 26.8519 24.2931 26.8596C24.2844 26.8706 24.2767 26.8838 24.269 26.8959C24.2657 26.9003 24.2623 26.9046 24.2591 26.9091C24.2493 26.9245 24.2372 26.9399 24.2272 26.9564C24.2217 26.9651 24.2162 26.9751 24.2096 26.9849C24.2085 26.9882 24.2064 26.9904 24.2041 26.9937L13.7043 44.995C13.7011 44.9994 13.6988 45.0037 13.6956 45.0103C13.6802 45.0389 13.6659 45.0653 13.6517 45.096C13.644 45.1113 13.6352 45.1268 13.6286 45.1443C13.6165 45.1708 13.6056 45.1993 13.5957 45.2279C13.588 45.2455 13.5804 45.2674 13.5738 45.285C13.5661 45.3092 13.5594 45.3333 13.553 45.3596C13.5464 45.3816 13.5398 45.408 13.5354 45.43C13.5299 45.4519 13.5277 45.4738 13.5233 45.4959C13.5189 45.5223 13.5135 45.5509 13.5101 45.5794C13.5078 45.5993 13.5069 45.619 13.5057 45.6365C13.5035 45.6673 13.5014 45.6981 13.5014 45.7288C13.5014 45.7375 13.5002 45.742 13.5002 45.7507C13.5002 45.7639 13.5025 45.7772 13.5025 45.7902C13.5036 45.8188 13.5047 45.8473 13.5069 45.8759C13.5091 45.9001 13.5112 45.922 13.5146 45.9485C13.5178 45.9704 13.5212 45.9946 13.5256 46.0188C13.5299 46.0452 13.5365 46.0715 13.5431 46.0978C13.5475 46.1176 13.5519 46.1373 13.5575 46.1549C13.5652 46.1857 13.5739 46.212 13.5839 46.2384C13.5905 46.256 13.5971 46.2758 13.6037 46.2955C13.6147 46.322 13.6257 46.346 13.6367 46.3702C13.6454 46.3921 13.6554 46.4097 13.6652 46.4295C13.6762 46.4515 13.6883 46.4757 13.7015 46.4976C13.7136 46.5174 13.7257 46.5371 13.7389 46.5592C13.751 46.5768 13.7642 46.5966 13.7763 46.6142C13.7927 46.6361 13.8082 46.6581 13.8258 46.6801C13.8379 46.6955 13.8511 46.713 13.8653 46.7263C13.8829 46.7482 13.9016 46.7701 13.9213 46.7879C13.9356 46.8054 13.951 46.8187 13.9663 46.834C13.985 46.8516 14.0047 46.8714 14.0245 46.8867C14.0432 46.902 14.0629 46.9196 14.0827 46.9328C14.1003 46.9461 14.119 46.9614 14.1377 46.9746C14.1619 46.9922 14.1872 47.0075 14.2124 47.0251C14.2234 47.0295 14.2332 47.0383 14.2443 47.0449C14.252 47.0493 14.2586 47.0515 14.2662 47.0559C14.2806 47.0646 14.2937 47.0735 14.308 47.0778C14.3366 47.0932 14.364 47.1086 14.3927 47.1196C14.4036 47.124 14.4135 47.1306 14.4235 47.1349C14.4619 47.1503 14.5015 47.1635 14.541 47.1767C14.552 47.1789 14.563 47.1833 14.5739 47.1877C14.6113 47.1964 14.6497 47.2075 14.6881 47.2162C14.6925 47.2185 14.6968 47.2185 14.7013 47.2185C14.7463 47.2272 14.7925 47.236 14.8376 47.2404C14.8442 47.2404 14.852 47.2404 14.8584 47.2404C14.9057 47.2448 14.9529 47.2491 14.9991 47.2491C15.0013 47.2491 15.0034 47.2491 15.0068 47.2491H35.9939C35.9962 47.2491 35.9972 47.2491 35.9994 47.2491H36.0017C36.0489 47.2491 36.095 47.2448 36.1423 47.2404C36.15 47.2404 36.1566 47.2404 36.1631 47.2404C36.1983 47.236 36.2323 47.2317 36.2675 47.2251C36.2697 47.2251 36.2729 47.2228 36.2752 47.2228C36.2839 47.2228 36.2916 47.2206 36.2994 47.2185C36.3037 47.2185 36.3092 47.2185 36.3137 47.2162C36.3258 47.214 36.3379 47.2096 36.35 47.2075C36.3566 47.2052 36.3621 47.2052 36.3687 47.2031C36.3885 47.1988 36.4082 47.1922 36.4269 47.1878C36.4368 47.1834 36.4468 47.1812 36.4566 47.1791C36.4588 47.1791 36.4598 47.1768 36.4621 47.1768C36.4797 47.1702 36.4972 47.1659 36.5148 47.157C36.528 47.1526 36.5422 47.1483 36.5566 47.1438C36.5632 47.1394 36.5709 47.1372 36.5774 47.1351C36.5861 47.1307 36.5939 47.1263 36.6016 47.1218C36.618 47.1175 36.6345 47.1086 36.6511 47.0999C36.6609 47.0955 36.6709 47.0912 36.6796 47.0867C36.6906 47.0823 36.7016 47.0757 36.7125 47.0691C36.7169 47.0691 36.7203 47.0648 36.7246 47.0625C36.7312 47.0603 36.7379 47.0559 36.7445 47.0515C36.7488 47.0493 36.7522 47.0472 36.7566 47.0449C36.7588 47.0427 36.7598 47.0427 36.762 47.0427C36.7851 47.0295 36.807 47.0141 36.8291 46.9988C36.8346 46.9944 36.8401 46.9922 36.8456 46.9901C36.8577 46.9814 36.8698 46.9725 36.8819 46.9636C36.8851 46.9593 36.8873 46.9593 36.8906 46.9549C36.9125 46.9417 36.9335 46.9241 36.9543 46.9065C36.9554 46.9065 36.9565 46.9065 36.9575 46.9043C36.9696 46.8933 36.9817 46.8845 36.9949 46.8714C36.9982 46.8691 37.0015 46.867 37.0048 46.8627C37.0223 46.8495 37.0377 46.8319 37.0543 46.8165C37.0575 46.8143 37.062 46.8099 37.0652 46.8056C37.0762 46.7946 37.086 46.7836 37.0972 46.7727C37.1059 46.764 37.1136 46.7551 37.1213 46.7462C37.1323 46.733 37.1433 46.722 37.1543 46.7088C37.1586 46.7022 37.163 46.6956 37.1675 46.6912C37.1741 46.6825 37.1807 46.6737 37.1873 46.6671C37.1928 46.6583 37.1994 46.6517 37.206 46.6429C37.2147 46.6297 37.2225 46.6164 37.2313 46.6055C37.2391 46.5945 37.2457 46.5856 37.2521 46.5769C37.2554 46.5703 37.2587 46.5659 37.2631 46.5593L49.1623 28.0486L55.6003 44.7884C55.8288 45.3838 56.3979 45.7509 57.0022 45.7509C57.1802 45.7509 57.3625 45.718 57.5382 45.6498C58.311 45.3509 58.6976 44.4852 58.3989 43.7118ZM25.5003 30.7261L33.3885 44.2478H17.6111L25.5003 30.7261ZM36.0626 42.8792L27.9403 28.9563L46.5028 26.6359L36.0626 42.8792Z" fill="#FCC425"/>
<path d="M31.4999 23.2499H22.4999C21.6715 23.2499 21.0002 22.5775 21.0002 21.7492C21.0002 20.9208 21.6715 20.2496 22.4999 20.2496H31.4999C32.3284 20.2496 32.9996 20.9208 32.9996 21.7492C32.9997 22.5775 32.3284 23.2499 31.4999 23.2499Z" fill="black"/>
<path d="M47.4323 20.8746C47.0566 20.8746 46.6787 20.7329 46.3863 20.4495C45.793 19.8717 45.78 18.9224 46.3578 18.328L47.3927 17.2634L45.8787 15.7496H39.0014C38.172 15.7496 37.4995 15.0784 37.4995 14.2499C37.4995 13.4215 38.1719 12.7491 39.0014 12.7491H46.4984C46.8984 12.7491 47.2806 12.9074 47.5619 13.1886L50.5612 16.1889C51.1412 16.769 51.1479 17.7071 50.5765 18.2949L48.5066 20.4208C48.2124 20.723 47.8234 20.8746 47.4323 20.8746Z" fill="black"/>
<path d="M39.0016 45.7508C39.0016 47.4075 37.6569 48.7478 36 48.7478C34.3432 48.7478 32.9998 47.4075 32.9998 45.7508C32.9998 44.0941 34.3433 42.7495 36 42.7495C37.6568 42.7495 39.0016 44.0941 39.0016 45.7508Z" fill="#EBB314"/>
</svg>
